<svg class="icon" viewBox="0 0 24 24" width="14" height="14" fill="currentColor" aria-hidden="true">
  <path d="M12 .3a12 12 0 0 0-3.8 23.4c.6.1.8-.3.8-.6v-2.2c-3.3.7-4-1.4-4-1.4-.5-1.3-1.3-1.7-1.3-1.7-1.1-.7.1-.7.1-.7 1.2.1 1.9 1.2 1.9 1.2 1 1.8 2.8 1.3 3.4 1 .1-.8.5-1.3.8-1.6-2.7-.3-5.5-1.3-5.5-6a4.7 4.7 0 0 1 1.2-3.2c-.1-.3-.5-1.5.1-3.2 0 0 1-.3 3.3 1.2a11.5 11.5 0 0 1 6 0C17.3 4.7 18.3 5 18.3 5c.7 1.7.2 2.9.1 3.2a4.6 4.6 0 0 1 1.2 3.2c0 4.7-2.8 5.7-5.5 6 .5.4.8 1.1.8 2.2v3.3c0 .3.2.7.8.6A12 12 0 0 0 12 .3"/>
</svg>
